{"title":"Falling Down 1993 DVDRip Xvid BigPerm LKRG","uid":6102510,"size":1176701553,"categoryP":"video","categoryS":"movies","magnet":"?xt=urn:btih:490c451d7c9fc3d85e42c946a27f5fa22a104d5c&amp;dn=Falling+Down+1993+DVDRip+Xvid+BigPerm+LKRG&amp;tr=udp%3A%2F%2Ftracker.openbittorrent.com%3A80&amp;tr=udp%3A%2F%2Fopen.demonii.com%3A1337&amp;tr=udp%3A%2F%2Ftracker.coppersurfer.tk%3A6969&amp;tr=udp%3A%2F%2Fexodus.desync.com%3A6969","seeders":0,"leechers":1,"uploader":"neon","files":-1,"time":1295031234,"description":"An unemployed defense worker frustrated with the various flaws he sees in society, begins to psychotically and violently lash out against them.\n\nCAST\n\nMichael Douglas ... William 'D-Fens' Foster\nRobert Duvall ... Detective Prendergast\nBarbara Hershey ... Elizabeth 'Beth' Travino\nTuesday Weld ... Amanda Prendergast\nRachel Ticotin ... Detective Sandra Torrez\nFrederic Forrest ... Nick, The Nazi Surplus Store Owner\nLois Smith ... Mrs. Foster / William's Mother\nJoey Hope Singer ... Adele Foster-Travino\nEbbe Roe Smith ... Guy on Freeway\nMichael Paul Chan ... Mr. Lee\nRaymond J. Barry ... Captain Yardley\nD.W. Moffett ... Detective Lydecker\nSteve Park ... Detective Brian\nKimberly Scott ... Detective Jones\njames Keane ... Detective Keene\n &lt;a href=&quot;\nhttp://leetleech.org/images/36821806072444052941.png&quot; rel=&quot;nofollow&quot; target=&quot;_NEW&quot;&gt;\nhttp://leetleech.org/images/36821806072444052941.png&lt;/a&gt; &lt;a href=&quot;\nhttp://leetleech.org/images/81045116103443251381.png&quot; rel=&quot;nofollow&quot; target=&quot;_NEW&quot;&gt;\nhttp://leetleech.org/images/81045116103443251381.png&lt;/a&gt; &lt;a href=&quot;\nhttp://leetleech.org/images/87737912278681601236.png&quot; rel=&quot;nofollow&quot; target=&quot;_NEW&quot;&gt;\nhttp://leetleech.org/images/87737912278681601236.png&lt;/a&gt; &lt;a href=&quot;\nhttp://leetleech.org/images/90315514161228347847.png&quot; rel=&quot;nofollow&quot; target=&quot;_NEW&quot;&gt;\nhttp://leetleech.org/images/90315514161228347847.png&lt;/a&gt;\n\n &lt;a href=&quot;\nhttp://www.imdb.com/title/tt0106856/&quot; rel=&quot;nofollow&quot; target=&quot;_NEW&quot;&gt;\nhttp://www.imdb.com/title/tt0106856/&lt;/a&gt; \n\n &lt;a href=&quot;\nhttp://www.videodetective.com/movie_trailer/FALLING_DOWN/trailer/P00004386.htm&quot; rel=&quot;nofollow&quot; target=&quot;_NEW&quot;&gt;\nhttp://www.videodetective.com/movie_trailer/FALLING_DOWN/trailer/P00004386.htm&lt;/a&gt;\n\nGeneral\nComplete name : Falling Down 1993 DVDRip Xvid BigPerm LKRG\\FD_LKRG.avi\nFormat : AVI\nFormat/Info : Audio Video Interleave\nFormat profile : OpenDML\nFile size : 1.10 GiB\nDuration : 1h 52mn\nOverall bit rate : 1 394 Kbps\n\nVideo\nID : 0\nFormat : MPEG-4 Visual\nFormat profile : Advanced Simple@L5\nFormat settings, BVOP : Yes\nFormat settings, QPel : No\nFormat settings, GMC : No warppoints\nFormat settings, Matrix : Default (H.263)\nCodec ID : XVID\nCodec ID/Hint : XviD\nDuration : 1h 52mn\nBit rate : 48.2 Kbps\nWidth : 704 pixels\nHeight : 396 pixels\nDisplay aspect ratio : 16:9\nFrame rate : 23.976 fps\nColor space : YUV\nChroma subsampling : 4:2:0\nBit depth : 8 bits\nScan type : Progressive\nCompression mode : Lossy\nBits/(Pixel*Frame) : 0.007\nStream size : 38.8 MiB (3%)\nWriting library : XviD 1.2.1 (UTC 2008-12-04)\n\nAudio\nID : 1\nFormat : AC-3\nFormat/Info : Audio Coding 3\nCodec ID : 2000\nDuration : 1h 52mn\nBit rate mode : Constant\nBit rate : 192 Kbps\nChannel(s) : 2 channels\nSampling rate : 48.0 KHz\nBit depth : 16 bits\nCompression mode : Lossy\nStream size : 155 MiB (14%)\nAlignment : Aligned on interleaves\nLanguage : English\n\n\nThanks to BigPerm","torrent":{"xt":"urn:btih:490c451d7c9fc3d85e42c946a27f5fa22a104d5c","amp;dn":"Falling+Down+1993+DVDRip+Xvid+BigPerm+LKRG","amp;tr":["udp%3A%2F%2Ftracker.openbittorrent.com%3A80","udp%3A%2F%2Fopen.demonii.com%3A1337","udp%3A%2F%2Ftracker.coppersurfer.tk%3A6969","udp%3A%2F%2Fexodus.desync.com%3A6969"],"infoHash":"490c451d7c9fc3d85e42c946a27f5fa22a104d5c","infoHashBuffer":{"type":"Buffer","data":[73,12,69,29,124,159,195,216,94,66,201,70,162,127,95,162,42,16,77,92]},"announce":[],"urlList":[]}}